<svg xmlns="http://www.w3.org/2000/svg" xmlns:xlink="http://www.w3.org/1999/xlink" width="500" zoomAndPan="magnify" viewBox="0 0 375 374.999991" height="500" preserveAspectRatio="xMidYMid meet" version="1.0"><defs><g/><clipPath id="317a486672"><path d="M 0 188.445312 L 366 188.445312 L 366 229.898438 L 0 229.898438 Z M 0 188.445312 " clip-rule="nonzero"/></clipPath></defs><rect x="-37.5" width="450" fill="#ffffff" y="-37.499999" height="449.999989" fill-opacity="1"/><rect x="-37.5" width="450" fill="#ffffff" y="-37.499999" height="449.999989" fill-opacity="1"/><rect x="-37.5" width="450" fill="#000000" y="-37.499999" height="449.999989" fill-opacity="1"/><g fill="#ffffff" fill-opacity="1"><g transform="translate(25.170236, 291.671154)"><g><path d="M 188.4375 -221.363281 L 179.859375 -219.148438 C 163.257812 -215.554688 151.632812 -200.609375 151.632812 -183.457031 L 151.632812 0 L 159.933594 -1.9375 C 176.539062 -5.8125 188.4375 -20.476562 188.4375 -37.632812 Z M 147.761719 -148.867188 L 140.566406 -153.570312 C 127.835938 -162.148438 111.789062 -161.871094 99.613281 -153.847656 L 36.800781 -221.085938 L 28.222656 -219.148438 C 11.621094 -215.554688 0 -200.609375 0 -183.457031 L 0 0 L 8.300781 -1.9375 C 24.902344 -5.8125 36.800781 -20.476562 36.800781 -37.632812 L 36.800781 -167.128906 L 97.398438 -101.828125 L 106.808594 -110.683594 Z M 147.761719 -148.867188 "/></g></g></g><g fill="#ffffff" fill-opacity="1"><g transform="translate(230.208268, 291.671154)"><g/></g></g><g fill="#ffffff" fill-opacity="1"><g transform="translate(313.219607, 291.671154)"><g><path d="M 36.800781 -221.363281 L 28.222656 -219.148438 C 11.621094 -215.554688 0 -200.609375 0 -183.457031 L 0 0 L 8.300781 -1.9375 C 24.902344 -5.8125 36.800781 -20.476562 36.800781 -37.632812 Z M 36.800781 -221.363281 "/></g></g></g><g clip-path="url(#317a486672)"><path fill="#000000" d="M -0.808594 188.445312 L 365.863281 188.445312 L 365.863281 229.84375 L -0.808594 229.84375 Z M -0.808594 188.445312 " fill-opacity="1" fill-rule="nonzero"/></g><g fill="#ffffff" fill-opacity="1"><g transform="translate(36.755276, 217.463617)"><g><path d="M 11.25 0 L 5.4375 -8.625 L 5.4375 0 L 2.171875 0 L 2.171875 -17.984375 L 5.4375 -17.984375 L 5.4375 -9.03125 L 11.171875 -17.984375 L 14.96875 -17.984375 L 8.828125 -9.0625 L 15.375 0 Z M 11.25 0 "/></g></g></g><g fill="#ffffff" fill-opacity="1"><g transform="translate(64.325561, 217.463617)"><g><path d="M 8.515625 0.3125 C 6.910156 0.3125 5.546875 -0.0664062 4.421875 -0.828125 C 3.296875 -1.585938 2.441406 -2.664062 1.859375 -4.0625 C 1.285156 -5.46875 1 -7.113281 1 -9 C 1 -10.875 1.285156 -12.507812 1.859375 -13.90625 C 2.429688 -15.300781 3.273438 -16.378906 4.390625 -17.140625 C 5.503906 -17.910156 6.851562 -18.296875 8.4375 -18.296875 C 10.082031 -18.296875 11.46875 -17.910156 12.59375 -17.140625 C 13.71875 -16.367188 14.5625 -15.285156 15.125 -13.890625 C 15.6875 -12.492188 15.96875 -10.863281 15.96875 -9 C 15.96875 -7.113281 15.675781 -5.46875 15.09375 -4.0625 C 14.519531 -2.664062 13.671875 -1.585938 12.546875 -0.828125 C 11.429688 -0.0664062 10.085938 0.3125 8.515625 0.3125 Z M 8.515625 -2.453125 C 9.273438 -2.453125 9.957031 -2.695312 10.5625 -3.1875 C 11.175781 -3.675781 11.65625 -4.414062 12 -5.40625 C 12.351562 -6.40625 12.53125 -7.628906 12.53125 -9.078125 C 12.53125 -11.203125 12.171875 -12.820312 11.453125 -13.9375 C 10.742188 -15.050781 9.738281 -15.609375 8.4375 -15.609375 C 7.175781 -15.609375 6.195312 -15.050781 5.5 -13.9375 C 4.8125 -12.820312 4.46875 -11.195312 4.46875 -9.0625 C 4.46875 -7.59375 4.628906 -6.363281 4.953125 -5.375 C 5.285156 -4.394531 5.753906 -3.660156 6.359375 -3.171875 C 6.972656 -2.691406 7.691406 -2.453125 8.515625 -2.453125 Z M 8.515625 -2.453125 "/></g></g></g><g fill="#ffffff" fill-opacity="1"><g transform="translate(93.494481, 217.463617)"><g><path d="M 10.0625 0 L 5.4375 -6.5 L 5.4375 0 L 2.171875 0 L 2.171875 -17.984375 L 7.171875 -17.984375 C 11.429688 -17.984375 13.5625 -16.070312 13.5625 -12.25 C 13.5625 -11.40625 13.425781 -10.570312 13.15625 -9.75 C 12.882812 -8.925781 12.4375 -8.195312 11.8125 -7.5625 C 11.1875 -6.925781 10.390625 -6.488281 9.421875 -6.25 L 14.0625 0 Z M 6.8125 -8.125 C 7.539062 -8.125 8.164062 -8.296875 8.6875 -8.640625 C 9.207031 -8.992188 9.597656 -9.457031 9.859375 -10.03125 C 10.128906 -10.613281 10.265625 -11.25 10.265625 -11.9375 C 10.265625 -13.125 9.988281 -14 9.4375 -14.5625 C 8.894531 -15.125 7.992188 -15.40625 6.734375 -15.40625 L 5.4375 -15.40625 L 5.4375 -8.125 Z M 6.8125 -8.125 "/></g></g></g><g fill="#ffffff" fill-opacity="1"><g transform="translate(120.574873, 217.463617)"><g><path d="M 12 -2.921875 L 12 0 L 2.09375 0 L 2.09375 -17.984375 L 11.484375 -17.984375 L 11.484375 -15.171875 L 5.3125 -15.171875 L 5.3125 -10.96875 L 10.21875 -10.96875 L 10.21875 -8.234375 L 5.3125 -8.234375 L 5.3125 -2.921875 Z M 12 -2.921875 "/></g></g></g><g fill="#ffffff" fill-opacity="1"><g transform="translate(145.824569, 217.463617)"><g><path d="M 10.546875 -2.609375 L 4.125 -2.609375 L 3.171875 0 L -0.4375 0 L 7.171875 -18.296875 L 7.421875 -18.296875 L 15.0625 0 L 11.5625 0 Z M 9.59375 -5.109375 L 7.71875 -10.015625 L 7.28125 -11.453125 L 6.859375 -10.015625 L 5.0625 -5.109375 Z M 9.59375 -5.109375 "/></g></g></g><g fill="#ffffff" fill-opacity="1"><g transform="translate(172.647103, 217.463617)"><g><path d="M 14.890625 -17.984375 L 14.890625 0.359375 L 14.625 0.359375 L 6.015625 -9.46875 L 5.21875 -10.5 L 5.34375 -8 L 5.34375 0 L 2.171875 0 L 2.171875 -18.296875 L 2.453125 -18.296875 L 10.9375 -8.390625 L 11.84375 -7.203125 L 11.71875 -9.671875 L 11.71875 -17.984375 Z M 14.890625 -17.984375 "/></g></g></g><g fill="#ffffff" fill-opacity="1"><g transform="translate(201.893373, 217.463617)"><g/></g></g><g fill="#ffffff" fill-opacity="1"><g transform="translate(218.99522, 217.463617)"><g><path d="M 6.546875 0.28125 C 5.753906 0.28125 5 0.1875 4.28125 0 C 3.570312 -0.1875 2.953125 -0.429688 2.421875 -0.734375 C 1.890625 -1.035156 1.46875 -1.347656 1.15625 -1.671875 L 2.46875 -4.390625 C 2.664062 -4.128906 2.96875 -3.851562 3.375 -3.5625 C 3.78125 -3.269531 4.242188 -3.019531 4.765625 -2.8125 C 5.285156 -2.601562 5.800781 -2.5 6.3125 -2.5 C 7 -2.5 7.570312 -2.6875 8.03125 -3.0625 C 8.488281 -3.4375 8.71875 -3.960938 8.71875 -4.640625 C 8.71875 -5.078125 8.613281 -5.457031 8.40625 -5.78125 C 8.195312 -6.101562 7.914062 -6.390625 7.5625 -6.640625 C 7.21875 -6.898438 6.679688 -7.25 5.953125 -7.6875 C 4.960938 -8.289062 4.1875 -8.804688 3.625 -9.234375 C 3.070312 -9.660156 2.59375 -10.21875 2.1875 -10.90625 C 1.78125 -11.59375 1.578125 -12.429688 1.578125 -13.421875 C 1.578125 -14.367188 1.78125 -15.207031 2.1875 -15.9375 C 2.59375 -16.675781 3.195312 -17.253906 4 -17.671875 C 4.800781 -18.085938 5.765625 -18.296875 6.890625 -18.296875 C 8.722656 -18.296875 10.253906 -17.734375 11.484375 -16.609375 L 10.03125 -13.984375 C 9.882812 -14.191406 9.664062 -14.414062 9.375 -14.65625 C 9.082031 -14.90625 8.726562 -15.117188 8.3125 -15.296875 C 7.90625 -15.472656 7.472656 -15.5625 7.015625 -15.5625 C 6.359375 -15.5625 5.84375 -15.367188 5.46875 -14.984375 C 5.101562 -14.597656 4.921875 -14.117188 4.921875 -13.546875 C 4.921875 -13.109375 5.03125 -12.71875 5.25 -12.375 C 5.46875 -12.03125 5.753906 -11.722656 6.109375 -11.453125 C 6.472656 -11.191406 6.957031 -10.882812 7.5625 -10.53125 C 8.65625 -9.882812 9.488281 -9.335938 10.0625 -8.890625 C 10.632812 -8.453125 11.113281 -7.894531 11.5 -7.21875 C 11.894531 -6.550781 12.09375 -5.726562 12.09375 -4.75 C 12.09375 -3.707031 11.867188 -2.804688 11.421875 -2.046875 C 10.972656 -1.296875 10.332031 -0.71875 9.5 -0.3125 C 8.664062 0.0820312 7.679688 0.28125 6.546875 0.28125 Z M 6.546875 0.28125 "/></g></g></g><g fill="#ffffff" fill-opacity="1"><g transform="translate(244.193348, 217.463617)"><g><path d="M 12.09375 -15.0625 L 7.953125 -15.0625 L 7.953125 0 L 4.625 0 L 4.625 -15.0625 L 0.46875 -15.0625 L 0.46875 -17.984375 L 12.09375 -17.984375 Z M 12.09375 -15.0625 "/></g></g></g><g fill="#ffffff" fill-opacity="1"><g transform="translate(268.953147, 217.463617)"><g><path d="M 8.515625 0.3125 C 6.910156 0.3125 5.546875 -0.0664062 4.421875 -0.828125 C 3.296875 -1.585938 2.441406 -2.664062 1.859375 -4.0625 C 1.285156 -5.46875 1 -7.113281 1 -9 C 1 -10.875 1.285156 -12.507812 1.859375 -13.90625 C 2.429688 -15.300781 3.273438 -16.378906 4.390625 -17.140625 C 5.503906 -17.910156 6.851562 -18.296875 8.4375 -18.296875 C 10.082031 -18.296875 11.46875 -17.910156 12.59375 -17.140625 C 13.71875 -16.367188 14.5625 -15.285156 15.125 -13.890625 C 15.6875 -12.492188 15.96875 -10.863281 15.96875 -9 C 15.96875 -7.113281 15.675781 -5.46875 15.09375 -4.0625 C 14.519531 -2.664062 13.671875 -1.585938 12.546875 -0.828125 C 11.429688 -0.0664062 10.085938 0.3125 8.515625 0.3125 Z M 8.515625 -2.453125 C 9.273438 -2.453125 9.957031 -2.695312 10.5625 -3.1875 C 11.175781 -3.675781 11.65625 -4.414062 12 -5.40625 C 12.351562 -6.40625 12.53125 -7.628906 12.53125 -9.078125 C 12.53125 -11.203125 12.171875 -12.820312 11.453125 -13.9375 C 10.742188 -15.050781 9.738281 -15.609375 8.4375 -15.609375 C 7.175781 -15.609375 6.195312 -15.050781 5.5 -13.9375 C 4.8125 -12.820312 4.46875 -11.195312 4.46875 -9.0625 C 4.46875 -7.59375 4.628906 -6.363281 4.953125 -5.375 C 5.285156 -4.394531 5.753906 -3.660156 6.359375 -3.171875 C 6.972656 -2.691406 7.691406 -2.453125 8.515625 -2.453125 Z M 8.515625 -2.453125 "/></g></g></g><g fill="#ffffff" fill-opacity="1"><g transform="translate(298.122063, 217.463617)"><g><path d="M 10.0625 0 L 5.4375 -6.5 L 5.4375 0 L 2.171875 0 L 2.171875 -17.984375 L 7.171875 -17.984375 C 11.429688 -17.984375 13.5625 -16.070312 13.5625 -12.25 C 13.5625 -11.40625 13.425781 -10.570312 13.15625 -9.75 C 12.882812 -8.925781 12.4375 -8.195312 11.8125 -7.5625 C 11.1875 -6.925781 10.390625 -6.488281 9.421875 -6.25 L 14.0625 0 Z M 6.8125 -8.125 C 7.539062 -8.125 8.164062 -8.296875 8.6875 -8.640625 C 9.207031 -8.992188 9.597656 -9.457031 9.859375 -10.03125 C 10.128906 -10.613281 10.265625 -11.25 10.265625 -11.9375 C 10.265625 -13.125 9.988281 -14 9.4375 -14.5625 C 8.894531 -15.125 7.992188 -15.40625 6.734375 -15.40625 L 5.4375 -15.40625 L 5.4375 -8.125 Z M 6.8125 -8.125 "/></g></g></g><g fill="#ffffff" fill-opacity="1"><g transform="translate(325.202449, 217.463617)"><g><path d="M 12 -2.921875 L 12 0 L 2.09375 0 L 2.09375 -17.984375 L 11.484375 -17.984375 L 11.484375 -15.171875 L 5.3125 -15.171875 L 5.3125 -10.96875 L 10.21875 -10.96875 L 10.21875 -8.234375 L 5.3125 -8.234375 L 5.3125 -2.921875 Z M 12 -2.921875 "/></g></g></g></svg>